<?xml version="1.0" encoding="utf-8"?>
<!-- Generator: Adobe Illustrator 19.2.1, SVG Export Plug-In . SVG Version: 6.00 Build 0)  -->
<svg version="1.1" id="Layer_1" xmlns="http://www.w3.org/2000/svg" xmlns:xlink="http://www.w3.org/1999/xlink" x="0px" y="0px"
	 viewBox="0 0 86 86" style="enable-background:new 0 0 86 86;" xml:space="preserve">
<style type="text/css">
	.st0{fill:#F99E1C;}
	.st1{fill:#FFFFFF;}
</style>
<circle class="st0" cx="43" cy="43" r="43"/>
<g id="Symbols_4_">
	<g id="flexcare_1_">
		<path class="st1" d="M65,20.7h-6.5c-1.1-1.4-2.8-2.3-5.2-2.3c-6,0-6-3.6-6-3.6c0-2.4-1.9-4.3-4.3-4.3c-2.4,0-4.3,1.9-4.3,4.3
			c0,0,0,3.6-6,3.6c-2.4,0-4.1,0.9-5.2,2.3H21c-1.3,0-2.3,1-2.3,2.3v50.3c0,1.3,1,2.3,2.3,2.3h44c1.3,0,2.3-1,2.3-2.3V22.9
			C67.3,21.7,66.2,20.7,65,20.7z M43,13c1,0,1.8,0.8,1.8,1.8c0,1-0.8,1.8-1.8,1.8c-1,0-1.8-0.8-1.8-1.8C41.2,13.8,42,13,43,13z
			 M62.3,70.3H23.7V23.9h2.4c-0.1,0.8-0.2,1.5-0.2,2.4h34.2c0-0.8-0.1-1.6-0.2-2.4h2.4V70.3L62.3,70.3z"/>
		<rect x="28.6" y="33.1" class="st1" width="6.2" height="6.2"/>
		<rect x="28.6" y="45.7" class="st1" width="6.2" height="6.2"/>
		<rect x="28.6" y="58.4" class="st1" width="6.2" height="6.2"/>
		<rect x="39.3" y="34.6" class="st1" width="17.9" height="3.1"/>
		<rect x="39.3" y="47.3" class="st1" width="17.9" height="3.1"/>
		<rect x="39.3" y="59.9" class="st1" width="17.9" height="3.1"/>
	</g>
</g>
</svg>
